<svg xmlns="http://www.w3.org/2000/svg" version="1.1" xmlns:xlink="http://www.w3.org/1999/xlink" xmlns:svgjs="http://svgjs.com/svgjs" width="1000" height="1000"><rect width="1000" height="1000" rx="200" ry="200" fill="#3b3b3b"></rect><g transform="matrix(2.680965147453083,0,0,2.680965147453083,2.340517841778876,-1.7440019817199186)"><svg xmlns="http://www.w3.org/2000/svg" version="1.1" xmlns:xlink="http://www.w3.org/1999/xlink" xmlns:svgjs="http://svgjs.com/svgjs" width="370" height="373"><svg version="1.1" id="Layer_1" xmlns="http://www.w3.org/2000/svg" xmlns:xlink="http://www.w3.org/1999/xlink" x="0px" y="0px" viewBox="0 0 370 373" style="enable-background:new 0 0 370 373;" xml:space="preserve">
<style type="text/css">
	.st0{fill:#FECEA8;}
	.st1{fill:none;stroke:#FECEA8;stroke-width:7;stroke-miterlimit:10;}
</style>
<path id="text-0" class="st0" d="M106.9,175.9h34.2c3.1,0,6.3,0.6,9.6,1.9c3.3,1.3,6.5,3,9.6,5.1l0,0h-0.2c3.1,2.1,5.4,5,7.1,8.7
	s2.5,7.9,2.5,12.6l0,0v24.3c0,9.6-3.2,16.7-9.6,21.4l0,0c-3.1,2.2-6.2,4-9.5,5.2c-3.3,1.3-6.4,1.9-9.5,1.9l0,0h-38.6
	c-3.1,0-6.2-0.6-9.5-1.9c-3.3-1.2-6.4-3-9.5-5.2l0,0c-6.4-4.7-9.6-11.9-9.6-21.4l0,0v-11.7c0-5.5,3.5-8.3,10.4-8.3l0,0
	c7.1,0,10.6,2.8,10.6,8.3l0,0v10.3c0,3.1,0.9,5.8,2.7,8.3s4.8,3.7,9.2,3.7l0,0h29.7c4.4,0,7.4-1.2,9.2-3.7c1.8-2.5,2.7-5.3,2.7-8.3
	l0,0v-21.5c0-3-0.9-5.7-2.7-8.3c-1.8-2.5-4.8-3.8-9.2-3.8l0,0h-34.2c-6.1,0-12.5-2.2-18.9-6.7l0,0c-6.4-5-9.6-12.1-9.6-21.4l0,0v-21
	c0-4.7,0.8-8.9,2.5-12.5c1.7-3.6,4-6.5,7.1-8.8l0,0h-0.2c3.1-2,6.3-3.7,9.6-5c3.3-1.3,6.5-1.9,9.6-1.9l0,0H141
	c3.1,0,6.3,0.6,9.6,1.9c3.3,1.3,6.5,3,9.6,5l0,0H160c3.1,2.2,5.4,5.2,7.1,8.8c1.7,3.6,2.5,7.7,2.5,12.5l0,0v10.4
	c0,5.5-3.5,8.3-10.6,8.3l0,0c-7,0-10.4-2.8-10.4-8.3l0,0v-8.9c0-3-0.9-5.7-2.7-8.1c-1.8-2.5-4.8-3.7-9.2-3.7l0,0H107
	c-4.4,0-7.4,1.2-9.2,3.7s-2.7,5.2-2.7,8.1l0,0V164c0,3.1,0.9,5.8,2.7,8.2C99.5,174.7,102.6,175.9,106.9,175.9L106.9,175.9z
	 M218.3,181.7l54-63.4c1.8-2.1,3.8-3.2,6-3.2l0,0c2.5,0,5,1.1,7.6,3.4l0,0c1.3,1.3,2.4,2.6,3.3,3.9c0.9,1.3,1.3,2.6,1.3,3.9l0,0
	c0,2.1-0.8,4-2.3,5.5l0,0l-23.7,27.6l-46.2,54.4v35.6c0,5.7-3.5,8.5-10.6,8.5l0,0c-7,0-10.4-2.8-10.4-8.5l0,0V123.8
	c0-5.7,3.5-8.5,10.4-8.5l0,0c7.1,0,10.6,2.8,10.6,8.5l0,0V181.7z M280.8,251.5l-33.6-49c-1.2-1.7-1.8-3.7-1.8-6l0,0
	c0-3.5,1.5-6.4,4.4-8.5l0,0h-0.2c2.4-1.7,4.7-2.5,7.1-2.5l0,0c2.2,0,4.1,1.3,5.7,3.9l0,0l34.2,49.9l-0.2-0.2
	c1.1,1.7,1.6,3.4,1.6,5.3l0,0c0,3.1-1.5,5.8-4.6,8.1l0,0h0.2c-1.3,0.8-2.5,1.5-3.7,1.9c-1.2,0.5-2.2,0.7-3.2,0.7l0,0
	c-0.9,0-1.9-0.4-2.9-1.1C282.7,253.4,281.8,252.5,280.8,251.5L280.8,251.5z"></path>
<path class="st1" d="M168,357.3L16.2,205.5c-10.8-10.8-10.8-28.4,0-39.2L164.8,17.7c10.8-10.8,28.4-10.8,39.2,0l151.8,151.8
	c10.8,10.8,10.8,28.4,0,39.2L207.2,357.3C196.4,368.2,178.8,368.2,168,357.3z"></path>
<path class="st1" d="M293.1,319.3H78.4c-15.3,0-27.7-12.4-27.7-27.7V81.4c0-15.3,12.4-27.7,27.7-27.7h214.7
	c15.3,0,27.7,12.4,27.7,27.7v210.1C320.9,306.9,308.4,319.3,293.1,319.3z"></path>
</svg></svg></g></svg>